<?xml version="1.0" encoding="UTF-8" standalone="no"?>
<svg
   xmlns:dc="http://purl.org/dc/elements/1.1/"
   xmlns:cc="http://creativecommons.org/ns#"
   xmlns:rdf="http://www.w3.org/1999/02/22-rdf-syntax-ns#"
   xmlns:svg="http://www.w3.org/2000/svg"
   xmlns="http://www.w3.org/2000/svg"
   xmlns:xlink="http://www.w3.org/1999/xlink"
   xmlns:sodipodi="http://sodipodi.sourceforge.net/DTD/sodipodi-0.dtd"
   xmlns:inkscape="http://www.inkscape.org/namespaces/inkscape"
   version="1.1"
   width="141.82812"
   height="141.82812"
   id="svg35"
   sodipodi:docname="Toy-with-gradient.svg"
   inkscape:version="0.92.2 (5c3e80d, 2017-08-06)">
  <metadata
     id="metadata39">
    <rdf:RDF>
      <cc:Work
         rdf:about="">
        <dc:format>image/svg+xml</dc:format>
        <dc:type
           rdf:resource="http://purl.org/dc/dcmitype/StillImage" />
        <dc:title></dc:title>
      </cc:Work>
    </rdf:RDF>
  </metadata>
  <sodipodi:namedview
     pagecolor="#ffffff"
     bordercolor="#666666"
     borderopacity="1"
     objecttolerance="10"
     gridtolerance="10"
     guidetolerance="10"
     inkscape:pageopacity="0"
     inkscape:pageshadow="2"
     inkscape:window-width="1222"
     inkscape:window-height="1005"
     id="namedview37"
     showgrid="false"
     showborder="false"
     inkscape:zoom="3.8489317"
     inkscape:cx="64.463577"
     inkscape:cy="59.499757"
     inkscape:window-x="54"
     inkscape:window-y="-4"
     inkscape:window-maximized="1"
     inkscape:current-layer="svg35" />
  <defs
     id="defs31">
    <linearGradient
       id="Rainbow"
       x2="1"
       y2="0">
      <stop
         offset="0"
         stop-color="red"
         id="stop2" />
      <stop
         offset="0.1429"
         stop-color="red"
         id="stop4" />
      <stop
         offset="0.1429"
         stop-color="#FF8000"
         id="stop6" />
      <stop
         offset="0.2857"
         stop-color="#FF8000"
         id="stop8" />
      <stop
         offset="0.2857"
         stop-color="#ff0"
         id="stop10" />
      <stop
         offset="0.4286"
         stop-color="#ff0"
         id="stop12" />
      <stop
         offset="0.4286"
         stop-color="lime"
         id="stop14" />
      <stop
         offset="0.5714"
         stop-color="lime"
         id="stop16" />
      <stop
         offset="0.5714"
         stop-color="cyan"
         id="stop18" />
      <stop
         offset="0.7143"
         stop-color="cyan"
         id="stop20" />
      <stop
         offset="0.7143"
         stop-color="#00F"
         id="stop22" />
      <stop
         offset="0.8571"
         stop-color="#00F"
         id="stop24" />
      <stop
         offset="0.8571"
         stop-color="#f0f"
         id="stop26" />
      <stop
         offset="1.00"
         stop-color="#f0f"
         id="stop28" />
    </linearGradient>
    <linearGradient
       inkscape:collect="always"
       xlink:href="#Rainbow"
       id="linearGradient872"
       x1="-802.85938"
       y1="362.70343"
       x2="-802.85938"
       y2="-60.253773"
       gradientUnits="userSpaceOnUse" />
    <linearGradient
       inkscape:collect="always"
       xlink:href="#Rainbow"
       id="linearGradient886"
       x1="251.23851"
       y1="-137.34758"
       x2="251.23851"
       y2="-280.24426"
       gradientUnits="userSpaceOnUse"
       gradientTransform="translate(-180.32448,279.70991)" />
  </defs>
  <g
     id="g9347"
     transform="matrix(0.33626242,0,0,0.33626242,345.94488,30.21965)"
     style="fill:url(#linearGradient872);fill-opacity:1" />
  <path
     inkscape:connector-curvature="0"
     style="fill:url(#linearGradient886);fill-opacity:1;stroke:none;stroke-width:0.33626243"
     d="M 70.91407,1.5756882e-8 A 10.130295,10.130295 0 0 0 60.78516,10.13086 10.130295,10.130295 0 0 0 70.87305,20.25781 H 60.78907 c -5.59481,0 -10.14063,4.53605 -10.14063,10.13086 0,5.59481 4.54582,10.12891 10.14063,10.12891 H 50.64844 c -5.59481,0 -10.1289,4.53605 -10.1289,10.13086 0,5.59481 4.53409,10.13086 10.1289,10.13086 h -10.1289 c -5.59481,0 -10.13086,4.53409 -10.13086,10.1289 0,5.59481 4.53605,10.13086 10.13086,10.13086 H 30.38868 c -5.59481,0 -10.12891,4.5341 -10.12891,10.12891 0,5.59481 4.5341,10.13086 10.12891,10.13086 H 20.25977 c -5.59481,0 -10.13086,4.54386 -10.13086,10.13867 0,5.59481 4.53605,10.13086 10.13086,10.13086 H 10.12891 C 4.53411,121.56836 0,126.10246 0,131.69726 c 0,5.5948 4.53411,10.13086 10.12891,10.13086 h 60.79102 60.77929 c 5.59481,0 10.1289,-4.53606 10.1289,-10.13086 0,-5.5948 -4.53409,-10.1289 -10.1289,-10.1289 h -10.13086 c 5.59481,0 10.13086,-4.53605 10.13086,-10.13086 0,-5.59481 -4.53605,-10.13867 -10.13086,-10.13867 h -10.12891 c 5.59481,0 10.12891,-4.53605 10.12891,-10.13086 0,-5.59124 -4.52925,-10.12314 -10.11914,-10.12891 h -10.14063 c 5.59481,0 10.13086,-4.53605 10.13086,-10.13086 0,-5.59481 -4.53605,-10.1289 -10.13086,-10.1289 h -10.1289 c 5.59481,0 10.1289,-4.53605 10.1289,-10.13086 0,-5.59481 -4.53409,-10.13086 -10.1289,-10.13086 H 81.04884 c 5.59481,0 10.13085,-4.5341 10.13085,-10.12891 0,-5.59481 -4.53604,-10.13086 -10.13085,-10.13086 H 70.96876 A 10.130295,10.130295 0 0 0 81.04493,10.13086 10.130295,10.130295 0 0 0 70.91407,1.5756882e-8 Z"
     id="path8439-8" />
</svg>
